<svg width="400" height="400" viewBox="0 0 400 400" xmlns="http://www.w3.org/2000/svg">
  <!-- Background -->
  <rect width="400" height="400" fill="#FFFFFF"/>
  
  <!-- Task Queue (left) -->
  <g id="queue">
    <rect x="30" y="100" width="80" height="200" fill="none" stroke="#1D1D1F" stroke-width="2" stroke-dasharray="4"/>
    <text x="70" y="85" text-anchor="middle" font-family="monospace" font-size="9" fill="#1D1D1F">TASKS</text>
    
    <!-- Tasks -->
    <rect x="45" y="120" width="50" height="25" fill="#E63946" fill-opacity="0.2" stroke="#E63946" stroke-width="1"/>
    <text x="70" y="137" text-anchor="middle" font-family="monospace" font-size="8" fill="#1D1D1F">Task 1</text>
    
    <rect x="45" y="155" width="50" height="25" fill="#E63946" fill-opacity="0.2" stroke="#E63946" stroke-width="1"/>
    <text x="70" y="172" text-anchor="middle" font-family="monospace" font-size="8" fill="#1D1D1F">Task 2</text>
    
    <rect x="45" y="190" width="50" height="25" fill="#E63946" fill-opacity="0.2" stroke="#E63946" stroke-width="1"/>
    <text x="70" y="207" text-anchor="middle" font-family="monospace" font-size="8" fill="#1D1D1F">Task 3</text>
    
    <rect x="45" y="225" width="50" height="25" fill="#1D1D1F" fill-opacity="0.1" stroke="#1D1D1F" stroke-width="1"/>
    <text x="70" y="242" text-anchor="middle" font-family="monospace" font-size="8" fill="#1D1D1F" opacity="0.5">Task 4</text>
    
    <rect x="45" y="260" width="50" height="25" fill="#1D1D1F" fill-opacity="0.1" stroke="#1D1D1F" stroke-width="1"/>
    <text x="70" y="277" text-anchor="middle" font-family="monospace" font-size="8" fill="#1D1D1F" opacity="0.5">Task 5</text>
  </g>
  
  <!-- Parallel Agents (center) -->
  <g id="agents">
    <!-- Agent A -->
    <g transform="translate(160, 120)">
      <circle cx="30" cy="30" r="25" fill="#E63946" fill-opacity="0.1" stroke="#E63946" stroke-width="2"/>
      <text x="30" y="35" text-anchor="middle" font-family="monospace" font-size="11" font-weight="bold" fill="#E63946">A</text>
      <text x="30" y="75" text-anchor="middle" font-family="monospace" font-size="7" fill="#1D1D1F">AGENT-A</text>
      <!-- Progress indicator -->
      <rect x="10" y="50" width="40" height="4" fill="#1D1D1F" fill-opacity="0.2" rx="2"/>
      <rect x="10" y="50" width="30" height="4" fill="#E63946" rx="2"/>
    </g>
    
    <!-- Agent B -->
    <g transform="translate(160, 200)">
      <circle cx="30" cy="30" r="25" fill="#E63946" fill-opacity="0.1" stroke="#E63946" stroke-width="2"/>
      <text x="30" y="35" text-anchor="middle" font-family="monospace" font-size="11" font-weight="bold" fill="#E63946">B</text>
      <text x="30" y="75" text-anchor="middle" font-family="monospace" font-size="7" fill="#1D1D1F">AGENT-B</text>
      <!-- Progress indicator -->
      <rect x="10" y="50" width="40" height="4" fill="#1D1D1F" fill-opacity="0.2" rx="2"/>
      <rect x="10" y="50" width="25" height="4" fill="#E63946" rx="2"/>
    </g>
    
    <!-- Agent C -->
    <g transform="translate(160, 280)">
      <circle cx="30" cy="30" r="25" fill="#E63946" fill-opacity="0.1" stroke="#E63946" stroke-width="2"/>
      <text x="30" y="35" text-anchor="middle" font-family="monospace" font-size="11" font-weight="bold" fill="#E63946">C</text>
      <text x="30" y="75" text-anchor="middle" font-family="monospace" font-size="7" fill="#1D1D1F">AGENT-C</text>
      <!-- Progress indicator -->
      <rect x="10" y="50" width="40" height="4" fill="#1D1D1F" fill-opacity="0.2" rx="2"/>
      <rect x="10" y="50" width="35" height="4" fill="#E63946" rx="2"/>
    </g>
  </g>
  
  <!-- Output (right) -->
  <g id="output">
    <rect x="290" y="100" width="80" height="200" fill="none" stroke="#1D1D1F" stroke-width="2"/>
    <text x="330" y="85" text-anchor="middle" font-family="monospace" font-size="9" fill="#1D1D1F">RESULTS</text>
    
    <!-- Completed tasks -->
    <rect x="305" y="120" width="50" height="25" fill="#1D1D1F" fill-opacity="0.1" stroke="#1D1D1F" stroke-width="1"/>
    <text x="330" y="137" text-anchor="middle" font-family="monospace" font-size="8" fill="#1D1D1F">✓ Done</text>
    
    <rect x="305" y="155" width="50" height="25" fill="#1D1D1F" fill-opacity="0.1" stroke="#1D1D1F" stroke-width="1"/>
    <text x="330" y="172" text-anchor="middle" font-family="monospace" font-size="8" fill="#1D1D1F">✓ Done</text>
    
    <rect x="305" y="190" width="50" height="25" fill="#1D1D1F" fill-opacity="0.1" stroke="#1D1D1F" stroke-width="1"/>
    <text x="330" y="207" text-anchor="middle" font-family="monospace" font-size="8" fill="#1D1D1F">✓ Done</text>
  </g>
  
  <!-- Flow arrows -->
  <g stroke="#E63946" stroke-width="1.5" fill="none" opacity="0.5">
    <!-- Tasks → Agents -->
    <line x1="110" y1="133" x2="165" y2="145"/>
    <line x1="110" y1="168" x2="165" y2="225"/>
    <line x1="110" y1="203" x2="165" y2="305"/>
    
    <!-- Agents → Results -->
    <line x1="215" y1="145" x2="290" y2="133"/>
    <line x1="215" y1="225" x2="290" y2="168"/>
    <line x1="215" y1="305" x2="290" y2="203"/>
  </g>
  
  <!-- Timeline at bottom -->
  <g id="timeline">
    <line x1="50" y1="350" x2="350" y2="350" stroke="#1D1D1F" stroke-width="2"/>
    <text x="50" y="340" text-anchor="start" font-family="monospace" font-size="8" fill="#1D1D1F">T=0</text>
    <text x="350" y="340" text-anchor="end" font-family="monospace" font-size="8" fill="#1D1D1F">T=15min</text>
    
    <!-- Time markers -->
    <circle cx="50" cy="350" r="3" fill="#E63946"/>
    <circle cx="200" cy="350" r="3" fill="#E63946" opacity="0.5"/>
    <circle cx="350" cy="350" r="3" fill="#1D1D1F"/>
  </g>
  
</svg>
