<svg width="400" height="400" viewBox="0 0 400 400" xmlns="http://www.w3.org/2000/svg">
  <!-- Background -->
  <rect width="400" height="400" fill="#FFFFFF"/>
  
  <!-- Title -->
  <text x="200" y="30" text-anchor="middle" font-family="monospace" font-size="12" font-weight="bold" fill="#1D1D1F">
    OBSIDIAN → CONTENT FLOW
  </text>
  
  <!-- Source: Obsidian Vault (brain/knowledge graph) -->
  <g id="source">
    <circle cx="80" cy="200" r="40" fill="none" stroke="#1D1D1F" stroke-width="2"/>
    <circle cx="70" cy="190" r="3" fill="#1D1D1F"/>
    <circle cx="90" cy="190" r="3" fill="#1D1D1F"/>
    <circle cx="80" cy="210" r="3" fill="#1D1D1F"/>
    <line x1="70" y1="190" x2="90" y2="190" stroke="#1D1D1F" stroke-width="1"/>
    <line x1="70" y1="190" x2="80" y2="210" stroke="#1D1D1F" stroke-width="1"/>
    <line x1="90" y1="190" x2="80" y2="210" stroke="#1D1D1F" stroke-width="1"/>
    <text x="80" y="265" text-anchor="middle" font-family="monospace" font-size="9" fill="#1D1D1F">VAULT</text>
  </g>
  
  <!-- Processing Pipeline -->
  <g id="pipeline">
    <!-- Arrow -->
    <line x1="120" y1="200" x2="160" y2="200" stroke="#E63946" stroke-width="2"/>
    <polygon points="160,200 155,197 155,203" fill="#E63946"/>
    
    <!-- Processing box -->
    <rect x="170" y="170" width="60" height="60" fill="#E63946" fill-opacity="0.1" stroke="#E63946" stroke-width="2"/>
    <text x="200" y="195" text-anchor="middle" font-family="monospace" font-size="10" fill="#E63946">AI</text>
    <text x="200" y="210" text-anchor="middle" font-family="monospace" font-size="10" fill="#E63946">PROCESS</text>
  </g>
  
  <!-- Multi-output (branching) -->
  <g id="outputs">
    <!-- Main arrow -->
    <line x1="230" y1="200" x2="260" y2="200" stroke="#E63946" stroke-width="2"/>
    
    <!-- Branch point -->
    <circle cx="270" cy="200" r="4" fill="#E63946"/>
    
    <!-- Branch 1: Website -->
    <line x1="270" y1="200" x2="320" y2="120" stroke="#1D1D1F" stroke-width="1.5"/>
    <rect x="300" y="100" width="50" height="40" fill="#FFFFFF" stroke="#1D1D1F" stroke-width="2" rx="4"/>
    <text x="325" y="125" text-anchor="middle" font-family="monospace" font-size="9" fill="#1D1D1F">WEB</text>
    
    <!-- Branch 2: Telegram -->
    <line x1="270" y1="200" x2="320" y2="200" stroke="#1D1D1F" stroke-width="1.5"/>
    <rect x="300" y="180" width="50" height="40" fill="#FFFFFF" stroke="#1D1D1F" stroke-width="2" rx="4"/>
    <text x="325" y="202" text-anchor="middle" font-family="monospace" font-size="8" fill="#1D1D1F">TG</text>
    <text x="325" y="212" text-anchor="middle" font-family="monospace" font-size="8" fill="#1D1D1F">POST</text>
    
    <!-- Branch 3: Instagram -->
    <line x1="270" y1="200" x2="320" y2="280" stroke="#1D1D1F" stroke-width="1.5"/>
    <rect x="300" y="260" width="50" height="40" fill="#FFFFFF" stroke="#1D1D1F" stroke-width="2" rx="4"/>
    <text x="325" y="282" text-anchor="middle" font-family="monospace" font-size="8" fill="#1D1D1F">IG</text>
    <text x="325" y="292" text-anchor="middle" font-family="monospace" font-size="8" fill="#1D1D1F">STORY</text>
  </g>
  
  <!-- Data flow indicators -->
  <g id="flow-dots">
    <circle cx="140" cy="200" r="2" fill="#E63946" opacity="0.7"/>
    <circle cx="150" cy="200" r="2" fill="#E63946" opacity="0.5"/>
    <circle cx="245" cy="200" r="2" fill="#E63946" opacity="0.7"/>
    <circle cx="255" cy="200" r="2" fill="#E63946" opacity="0.5"/>
  </g>
  
  <!-- Key concepts at bottom -->
  <g id="concepts">
    <rect x="50" y="330" width="100" height="35" fill="#FFFFFF" stroke="#1D1D1F" stroke-width="1" opacity="0.5"/>
    <text x="100" y="345" text-anchor="middle" font-family="monospace" font-size="8" fill="#1D1D1F">MARKDOWN</text>
    <text x="100" y="357" text-anchor="middle" font-family="monospace" font-size="8" fill="#1D1D1F">SOURCE</text>
    
    <rect x="170" y="330" width="100" height="35" fill="#E63946" fill-opacity="0.1" stroke="#E63946" stroke-width="1"/>
    <text x="220" y="345" text-anchor="middle" font-family="monospace" font-size="8" fill="#E63946">TEMPLATE</text>
    <text x="220" y="357" text-anchor="middle" font-family="monospace" font-size="8" fill="#E63946">ENGINE</text>
    
    <rect x="290" y="330" width="100" height="35" fill="#FFFFFF" stroke="#1D1D1F" stroke-width="1" opacity="0.5"/>
    <text x="340" y="345" text-anchor="middle" font-family="monospace" font-size="8" fill="#1D1D1F">PUBLISH</text>
    <text x="340" y="357" text-anchor="middle" font-family="monospace" font-size="8" fill="#1D1D1F">MULTI-OUT</text>
  </g>
  
  <!-- Graph links preserved -->
  <text x="200" y="385" text-anchor="middle" font-family="monospace" font-size="9" fill="#1D1D1F" opacity="0.5">
    GRAPH CONNECTIONS PRESERVED
  </text>
</svg>
