<svg width="800" height="800" viewBox="0 0 800 800" fill="none" xmlns="http://www.w3.org/2000/svg">
  <defs>
    <style>
      .text { font-family: 'IBM Plex Mono', monospace; font-size: 24px; fill: #171717; }
      .text-small { font-family: 'IBM Plex Mono', monospace; font-size: 14px; fill: #6B7280; }
      @keyframes glow { 0%, 100% { filter: drop-shadow(0 0 2px #DC2626); } 50% { filter: drop-shadow(0 0 8px #DC2626); } }
      @keyframes rise { 0%, 100% { transform: translateY(0); } 50% { transform: translateY(-5px); } }
      .glow { animation: glow 2s ease-in-out infinite; }
      .rise { animation: rise 3s ease-in-out infinite; }
    </style>
  </defs>

  <!-- Background -->
  <rect width="800" height="800" fill="#FFFFFF"/>

  <!-- Grid -->
  <path d="M400 0V800 M0 400H800" stroke="#F3F4F6" stroke-width="2"/>

  <!-- Achievement layers / stairs -->

  <!-- Level 1: Base -->
  <rect x="200" y="500" width="400" height="60" rx="4" fill="#F3F4F6" stroke="#E5E7EB" stroke-width="2"/>
  <text x="400" y="537" text-anchor="middle" class="text-small">basics</text>

  <!-- Level 2 -->
  <rect x="240" y="420" width="320" height="60" rx="4" fill="#F3F4F6" stroke="#D1D5DB" stroke-width="2"/>
  <text x="400" y="457" text-anchor="middle" class="text-small">design</text>

  <!-- Level 3 -->
  <rect x="280" y="340" width="240" height="60" rx="4" fill="#F3F4F6" stroke="#9CA3AF" stroke-width="2"/>
  <text x="400" y="377" text-anchor="middle" class="text-small">practice</text>

  <!-- Level 4: Advanced (highlighted) -->
  <rect x="320" y="260" width="160" height="60" rx="4" fill="#DC2626" fill-opacity="0.1" stroke="#DC2626" stroke-width="3" class="glow"/>
  <text x="400" y="297" text-anchor="middle" class="text-small" style="fill: #DC2626; font-weight: 700;">ADVANCED</text>

  <!-- Crown / graduation cap at top -->
  <g class="rise">
    <path d="M400 160 L340 200 L400 180 L460 200 Z" fill="#DC2626"/>
    <rect x="370" y="200" width="60" height="10" fill="#171717"/>
    <line x1="400" y1="180" x2="400" y2="130" stroke="#171717" stroke-width="2"/>
    <circle cx="400" cy="125" r="8" fill="#DC2626"/>
  </g>

  <!-- Side decorations: experience points -->
  <circle cx="150" cy="350" r="30" stroke="#E5E7EB" stroke-width="2" fill="none"/>
  <text x="150" y="355" text-anchor="middle" class="text-small">XP</text>

  <circle cx="650" cy="350" r="30" stroke="#E5E7EB" stroke-width="2" fill="none"/>
  <text x="650" y="355" text-anchor="middle" class="text-small">PRO</text>

  <!-- Progress dots -->
  <circle cx="320" cy="600" r="8" fill="#DC2626"/>
  <circle cx="360" cy="600" r="8" fill="#DC2626"/>
  <circle cx="400" cy="600" r="8" fill="#DC2626"/>
  <circle cx="440" cy="600" r="8" fill="#DC2626" fill-opacity="0.5"/>
  <circle cx="480" cy="600" r="8" stroke="#E5E7EB" stroke-width="2" fill="none"/>

</svg>
